<svg id="e5ff0481-f9ec-407d-9a36-ad927c50d4b5" data-name="Layer 1" xmlns="http://www.w3.org/2000/svg" xmlns:xlink="http://www.w3.org/1999/xlink" width="190" height="190" viewBox="0 0 190 190"><defs><clipPath id="668e3178-271e-4ae9-9ebd-492f5352efdc"><path d="M40.87625,54.085l-7.80811-13.416H11.50275l-3.198,13.416H0.94266L13.36154,1.90906h5.1312L49.205,54.085h-8.3288ZM17.67465,14.431l-4.5361,19.156h15.7652Z" style="fill:none;clip-rule:evenodd"/></clipPath><clipPath id="f4dfc830-39c5-40d6-963d-a76c01b9fa04"><rect x="-279.24075" y="-164.5" width="750" height="1334" style="fill:none"/></clipPath><clipPath id="602af314-9389-4514-b810-8b718d67ee33"><path d="M110.80215,54.085l-7.80811-13.416H81.42865L78.23056,54.085h-7.362L83.28745,1.90906h5.1312L119.131,54.085h-8.3288ZM87.60056,14.431l-4.5361,19.156h15.7652Z" style="fill:none;clip-rule:evenodd"/></clipPath><clipPath id="088a4208-73fa-4bc6-9eb4-afaac787ecb1"><path d="M180.72845,54.085l-7.808-13.416H151.355L148.157,54.085h-7.362l12.41888-52.1759h5.1311l30.7124,52.1759h-8.32889ZM157.52686,14.431l-4.5361,19.156H168.756Z" style="fill:none;clip-rule:evenodd"/></clipPath><clipPath id="82bcbfd3-fb81-4fb7-ae94-edf251248f03"><path d="M40.87625,188.3382l-7.80811-13.4165H11.50275l-3.198,13.4165H0.94266L13.36154,136.162h5.1312L49.205,188.3382h-8.3288ZM17.67465,148.684l-4.5361,19.156h15.7652Z" style="fill:none;clip-rule:evenodd"/></clipPath><clipPath id="8c818b06-05ca-4e35-9b81-27a8d99fa178"><path d="M110.80215,188.3382l-7.80811-13.4165H81.42865l-3.19809,13.4165h-7.362L83.28745,136.162h5.1312L119.131,188.3382h-8.3288ZM87.60056,148.684l-4.5361,19.156h15.7652Z" style="fill:none;clip-rule:evenodd"/></clipPath><clipPath id="99d56132-094f-4bc7-a2b1-4b9dbf7b202f"><path d="M180.72845,188.3382l-7.808-13.4165H151.355L148.157,188.3382h-7.362L153.21384,136.162h5.1311l30.7124,52.17621h-8.32889ZM157.52686,148.684l-4.5361,19.156H168.756Z" style="fill:none;clip-rule:evenodd"/></clipPath><clipPath id="05b47062-abf7-4ecf-87b8-99fc0e265920"><path d="M0.94293,121.212L31.65524,69.035h5.1312L49.205,121.212H41.84283l-3.1976-13.417H17.07983l-7.8085,13.417H0.94293Zm20.3013-20.498H37.00946L32.473,81.558Z" style="fill:none;clip-rule:evenodd"/></clipPath><clipPath id="a7ca0554-2dea-4123-89a5-9c9b54930e15"><path d="M70.86874,121.212l30.7124-52.177h5.1311l12.41849,52.177h-7.362L108.571,107.795H87.00565l-7.8085,13.417h-8.3284ZM91.17,100.714h15.7652l-4.5365-19.156Z" style="fill:none;clip-rule:evenodd"/></clipPath><clipPath id="4dcebf4d-48ab-46c3-8d8e-11c707562707"><path d="M140.79514,121.212l30.7124-52.177h5.1312l12.41843,52.177h-7.362l-3.19772-13.417H156.932l-7.80838,13.417h-8.32852Zm20.3013-20.498h15.76532l-4.5365-19.156Z" style="fill:none;clip-rule:evenodd"/></clipPath><clipPath id="5c257d92-4024-486d-a50b-7bcc76067056"><rect x="4.75925" y="1.5" width="180" height="187" style="fill:none"/></clipPath><clipPath id="908394a1-f403-44c8-88de-8d6d32951351"><polygon points="14.403 121.212 5.256 69.036 12.618 69.036 20.501 114.131 43.628 114.131 44.892 121.212 14.403 121.212" style="fill:none;clip-rule:evenodd"/></clipPath><clipPath id="2771f85d-f075-471d-a2e4-dd1488ab0793"><polygon points="84.329 121.212 75.182 69.036 82.544 69.036 90.427 114.131 113.554 114.131 114.818 121.212 84.329 121.212" style="fill:none;clip-rule:evenodd"/></clipPath><clipPath id="e18342a0-53ae-47ab-8566-a2ed606a2bb3"><polygon points="154.255 121.212 145.108 69.036 152.47 69.036 160.353 114.131 183.48 114.131 184.744 121.212 154.255 121.212" style="fill:none;clip-rule:evenodd"/></clipPath><clipPath id="074650e1-9168-49f9-b8b8-c3e7d82d82b4"><polygon points="11.404 188.338 20.551 136.162 27.913 136.162 19.956 181.258 43.157 181.258 41.893 188.338 11.404 188.338" style="fill:none;clip-rule:evenodd"/></clipPath><clipPath id="d8b21128-daff-4b9b-a4c2-6750e79a7bc0"><polygon points="81.33 188.338 90.477 136.162 97.839 136.162 89.882 181.258 113.083 181.258 111.819 188.338 81.33 188.338" style="fill:none;clip-rule:evenodd"/></clipPath><clipPath id="31d5acec-1b43-4859-9481-4a26539c63b8"><polygon points="151.367 188.338 160.514 136.162 167.876 136.162 159.919 181.258 183.121 181.258 181.857 188.338 151.367 188.338" style="fill:none;clip-rule:evenodd"/></clipPath><clipPath id="f4ce3cdd-c528-4622-a911-f2cbd73b42f3"><polygon points="11.404 54.085 20.551 1.909 27.913 1.909 19.956 47.005 43.157 47.005 41.893 54.085 11.404 54.085" style="fill:none;clip-rule:evenodd"/></clipPath><clipPath id="72a58cd2-7902-4b63-abaa-a51a5bf2c973"><polygon points="81.33 54.085 90.477 1.909 97.839 1.909 89.882 47.005 113.083 47.005 111.819 54.085 81.33 54.085" style="fill:none;clip-rule:evenodd"/></clipPath><clipPath id="3ec37125-80ff-45ab-94fc-f8fcd50bc328"><polygon points="151.367 54.085 160.514 1.909 167.876 1.909 159.919 47.005 183.121 47.005 181.857 54.085 151.367 54.085" style="fill:none;clip-rule:evenodd"/></clipPath></defs><title>login</title><g style="clip-path:url(#668e3178-271e-4ae9-9ebd-492f5352efdc)"><g style="clip-path:url(#f4dfc830-39c5-40d6-963d-a76c01b9fa04)"><rect x="-9.05734" y="-8.09094" width="68.26239" height="72.1759" style="fill:#232020"/></g></g><g style="clip-path:url(#602af314-9389-4514-b810-8b718d67ee33)"><g style="clip-path:url(#f4dfc830-39c5-40d6-963d-a76c01b9fa04)"><rect x="60.86856" y="-8.09094" width="68.26239" height="72.1759" style="fill:#232020"/></g></g><g style="clip-path:url(#088a4208-73fa-4bc6-9eb4-afaac787ecb1)"><g style="clip-path:url(#f4dfc830-39c5-40d6-963d-a76c01b9fa04)"><rect x="130.79495" y="-8.09094" width="68.26239" height="72.1759" style="fill:#232020"/></g></g><g style="clip-path:url(#82bcbfd3-fb81-4fb7-ae94-edf251248f03)"><g style="clip-path:url(#f4dfc830-39c5-40d6-963d-a76c01b9fa04)"><rect x="-9.05734" y="126.16199" width="68.26239" height="72.17621" style="fill:#232020"/></g></g><g style="clip-path:url(#8c818b06-05ca-4e35-9b81-27a8d99fa178)"><g style="clip-path:url(#f4dfc830-39c5-40d6-963d-a76c01b9fa04)"><rect x="60.86856" y="126.16199" width="68.26239" height="72.17621" style="fill:#232020"/></g></g><g style="clip-path:url(#99d56132-094f-4bc7-a2b1-4b9dbf7b202f)"><g style="clip-path:url(#f4dfc830-39c5-40d6-963d-a76c01b9fa04)"><rect x="130.79495" y="126.16199" width="68.26239" height="72.17621" style="fill:#232020"/></g></g><g style="clip-path:url(#05b47062-abf7-4ecf-87b8-99fc0e265920)"><g style="clip-path:url(#f4dfc830-39c5-40d6-963d-a76c01b9fa04)"><rect x="-9.05707" y="59.03503" width="68.26202" height="72.177" style="fill:#232020"/></g></g><g style="clip-path:url(#a7ca0554-2dea-4123-89a5-9c9b54930e15)"><g style="clip-path:url(#f4dfc830-39c5-40d6-963d-a76c01b9fa04)"><rect x="60.86874" y="59.03503" width="68.26199" height="72.177" style="fill:#232020"/></g></g><g style="clip-path:url(#4dcebf4d-48ab-46c3-8d8e-11c707562707)"><g style="clip-path:url(#f4dfc830-39c5-40d6-963d-a76c01b9fa04)"><rect x="130.79514" y="59.03503" width="68.26202" height="72.177" style="fill:#232020"/></g></g><g style="opacity:0.800000011920929;isolation:isolate"><g style="clip-path:url(#5c257d92-4024-486d-a50b-7bcc76067056)"><g style="clip-path:url(#5c257d92-4024-486d-a50b-7bcc76067056)"><g style="isolation:isolate"><g style="clip-path:url(#5c257d92-4024-486d-a50b-7bcc76067056)"><g style="clip-path:url(#908394a1-f403-44c8-88de-8d6d32951351)"><g style="clip-path:url(#5c257d92-4024-486d-a50b-7bcc76067056)"><rect x="-4.74405" y="59.03601" width="59.6362" height="72.17603" style="fill:#00f2dd"/></g></g><g style="clip-path:url(#2771f85d-f075-471d-a2e4-dd1488ab0793)"><g style="clip-path:url(#5c257d92-4024-486d-a50b-7bcc76067056)"><rect x="65.18173" y="59.03601" width="59.63632" height="72.17603" style="fill:#00f2dd"/></g></g><g style="clip-path:url(#e18342a0-53ae-47ab-8566-a2ed606a2bb3)"><g style="clip-path:url(#5c257d92-4024-486d-a50b-7bcc76067056)"><rect x="135.10794" y="59.03601" width="59.6362" height="72.17603" style="fill:#00f2dd"/></g></g><g style="clip-path:url(#074650e1-9168-49f9-b8b8-c3e7d82d82b4)"><g style="clip-path:url(#5c257d92-4024-486d-a50b-7bcc76067056)"><rect x="1.40384" y="126.16199" width="51.75351" height="72.17639" style="fill:#00f2dd"/></g></g><g style="clip-path:url(#d8b21128-daff-4b9b-a4c2-6750e79a7bc0)"><g style="clip-path:url(#5c257d92-4024-486d-a50b-7bcc76067056)"><rect x="71.32974" y="126.16199" width="51.75342" height="72.17639" style="fill:#00f2dd"/></g></g><g style="clip-path:url(#31d5acec-1b43-4859-9481-4a26539c63b8)"><g style="clip-path:url(#5c257d92-4024-486d-a50b-7bcc76067056)"><rect x="141.36725" y="126.16199" width="51.75339" height="72.17639" style="fill:#00f2dd"/></g></g><g style="clip-path:url(#f4ce3cdd-c528-4622-a911-f2cbd73b42f3)"><g style="clip-path:url(#5c257d92-4024-486d-a50b-7bcc76067056)"><rect x="1.40384" y="-8.09094" width="51.75351" height="72.1759" style="fill:#00f2dd"/></g></g><g style="clip-path:url(#72a58cd2-7902-4b63-abaa-a51a5bf2c973)"><g style="clip-path:url(#5c257d92-4024-486d-a50b-7bcc76067056)"><rect x="71.32974" y="-8.09094" width="51.75342" height="72.1759" style="fill:#00f2dd"/></g></g><g style="clip-path:url(#3ec37125-80ff-45ab-94fc-f8fcd50bc328)"><g style="clip-path:url(#5c257d92-4024-486d-a50b-7bcc76067056)"><rect x="141.36725" y="-8.09094" width="51.75339" height="72.1759" style="fill:#00f2dd"/></g></g></g></g></g></g></g></svg>